<?xml version="1.0" encoding="UTF-8"?>
<!-- Generated by Pixelmator Pro 3.5.1 -->
<svg width="715" height="715" viewBox="0 0 715 715" xmlns="http://www.w3.org/2000/svg">
    <g id="moraexamsvectorized">
        <path id="Rounded-Rectangle-copy" fill="#ffc7f9" stroke="none" d="M 199 715 C 95.331841 715 10.086847 636.125427 0 535.113281 L 0 357.833984 L 0 179.886719 C 10.086847 78.874573 95.331841 0 199 0 L 515 0 C 625.456848 0 715 89.543152 715 200 L 715 515 C 715 625.456848 625.456848 715 515 715 L 358.167969 715 L 199 715 Z"/>
        <path id="Rounded-Rectangle" fill="#23003f" stroke="none" d="M 199 715 C 88.543159 715 -1 625.456848 -1 515 L -1 357.833984 L -1 200 C -1 89.543152 88.543159 0 199 0 L 515 0 C 619.915527 0 705.962524 80.784607 714.332031 183.542969 L 714.332031 357.833984 L 714.332031 531.457031 C 705.962524 634.215393 619.915527 715 515 715 L 357.166016 715 L 199 715 Z M 215.099609 568.931641 C 215.099609 568.931641 218.101654 568.932129 222.103516 567.931641 C 235.109543 565.930725 246.115524 561.929504 258.121094 553.925781 C 267.125305 548.923462 268.124329 541.919739 261.121094 533.916016 C 258.11969 530.914612 256.119568 526.912598 255.119141 525.912109 C 254.118668 523.911133 252.118134 520.910645 250.117188 519.910156 C 248.116272 516.908752 240.111237 503.901672 236.109375 496.898438 C 231.107056 487.894287 222.102951 464.884033 219.101563 453.878906 C 216.100159 439.872406 215.101471 436.870819 211.099609 424.865234 C 210.099152 416.861511 207.097656 408.856873 207.097656 405.855469 C 205.09671 398.852203 205.096268 390.848846 208.097656 379.84375 C 209.098129 372.840485 209.098129 370.839203 208.097656 363.835938 C 207.097214 358.833618 207.096176 353.832489 206.095703 352.832031 C 196.091049 325.819458 200.094116 320.816223 237.111328 312.8125 C 272.127594 303.808289 285.132538 300.807587 294.136719 298.806641 C 296.137665 297.806213 300.139709 296.804688 302.140625 296.804688 C 304.141541 296.804688 314.145721 293.80368 324.150391 291.802734 C 354.164337 283.799011 362.168549 282.798431 365.169922 287.800781 C 367.170868 291.802612 367.170868 297.805695 365.169922 299.806641 C 362.168549 302.808014 354.165375 305.809235 326.152344 312.8125 C 288.134705 321.816681 279.130157 323.818909 268.125 326.820313 C 264.123169 327.82074 260.121094 328.820313 260.121094 328.820313 L 260.121094 329.820313 C 261.121552 330.82077 273.128174 333.823303 283.132813 335.824219 C 295.138397 338.825623 309.143402 342.827759 324.150391 347.830078 C 351.162933 356.834259 370.173187 356.834259 405.189453 347.830078 C 409.191345 346.82962 419.195984 343.827118 426.199219 341.826172 C 433.202515 339.825226 440.205078 338.824677 440.205078 337.824219 C 441.205536 337.824219 443.206085 337.824677 445.207031 336.824219 C 448.208435 336.824219 454.212036 334.822723 460.214844 333.822266 C 465.217133 331.82135 471.219757 329.820313 473.220703 329.820313 C 479.22348 328.819824 508.237823 320.816895 509.238281 319.816406 C 510.238739 319.816406 512.239319 319.816864 514.240234 318.816406 C 517.241638 318.816406 523.243286 316.814911 529.246094 315.814453 C 534.248352 313.813507 540.250977 311.8125 542.251953 311.8125 C 546.253784 310.812012 571.265808 304.809509 579.269531 302.808594 C 581.270447 301.808105 586.27356 299.806641 590.275391 299.806641 C 614.28656 292.803345 617.288147 291.802612 619.289063 287.800781 C 621.289978 284.799377 621.289978 279.798279 619.289063 276.796875 C 617.288147 273.795502 610.285461 270.793427 601.28125 269.792969 C 598.279846 269.792969 588.273682 267.791962 579.269531 265.791016 C 569.264893 262.789612 559.260742 260.789063 557.259766 260.789063 C 554.258362 259.788574 550.256836 259.787567 548.255859 258.787109 C 545.254517 258.787109 540.251831 256.787109 536.25 256.787109 C 531.247681 255.786652 524.24353 253.785614 521.242188 252.785156 C 517.240295 252.785156 510.23819 250.783661 506.236328 249.783203 C 501.233978 249.783203 494.229919 247.781677 491.228516 246.78125 C 487.226685 246.78125 480.224487 244.781708 476.222656 243.78125 C 471.220306 243.78125 464.216248 241.779755 461.214844 240.779297 C 457.212982 240.779297 450.210815 238.777802 446.208984 237.777344 C 441.206635 237.777344 434.202576 235.777771 431.201172 234.777344 C 427.199341 234.777344 420.195221 232.775391 416.193359 232.775391 C 412.191528 231.774933 403.187317 229.774353 395.183594 227.773438 C 388.180359 225.772491 378.176636 224.772003 372.173828 223.771484 C 360.168243 222.771057 357.16684 222.77066 330.154297 228.773438 C 320.149628 231.774841 309.143951 233.776886 306.142578 234.777344 C 289.134674 237.778717 261.121552 243.78125 260.121094 243.78125 C 260.121094 244.781708 246.11438 246.781372 231.107422 250.783203 C 216.100449 253.784607 203.095703 255.787109 203.095703 255.787109 C 203.095703 256.787567 191.088547 258.787659 177.082031 261.789063 C 163.075546 264.790436 150.071243 267.791016 148.070313 267.791016 C 145.068924 268.791473 137.063797 270.792511 130.060547 271.792969 C 116.054039 274.794342 115.054131 274.795471 112.052734 277.796875 C 110.051796 279.797821 109.050781 282.79837 109.050781 283.798828 C 109.050781 286.800201 112.051811 292.804199 114.052734 293.804688 C 116.053665 294.805145 138.064468 300.808197 159.074219 305.810547 C 169.078873 307.811462 176.083038 310.811554 178.083984 312.8125 C 180.0849 314.813446 180.083984 316.814362 180.083984 333.822266 C 180.083984 350.830139 179.082977 351.831085 177.082031 353.832031 C 176.081573 355.832977 175.082031 356.833496 175.082031 357.833984 C 175.082031 358.834473 174.080536 360.83548 173.080078 361.835938 C 172.079605 364.837341 172.080627 367.838074 175.082031 375.841797 C 178.083435 382.845062 178.083435 391.850433 175.082031 406.857422 C 173.0811 417.862518 173.080078 422.86441 173.080078 449.876953 C 173.080078 477.889954 173.0811 481.892517 175.082031 498.900391 C 179.083893 525.912964 185.087051 548.923584 191.089844 557.927734 C 194.091232 562.930054 201.093948 566.931152 209.097656 567.931641 C 212.09906 567.931641 215.099609 568.931641 215.099609 568.931641 Z M 359.324219 501.291016 C 372.17395 501.337921 388.682068 500.401062 396.185547 498.900391 C 406.190216 496.899475 405.18924 496.898804 418.195313 491.896484 C 428.199951 487.894653 438.203827 482.891907 449.208984 475.888672 C 463.215515 466.884491 470.218353 458.881134 475.220703 449.876953 C 485.225342 433.869568 487.226563 420.862518 487.226563 388.847656 C 487.226563 367.837921 486.227478 362.836853 484.226563 360.835938 C 482.225616 359.835449 476.222198 360.835114 456.212891 366.837891 C 451.210602 367.838379 446.207489 368.839844 445.207031 368.839844 C 444.206543 369.840302 438.203461 370.839417 433.201172 371.839844 C 419.194641 375.841736 393.182922 382.844788 386.179688 384.845703 C 371.172699 387.847107 359.167236 387.847107 348.162109 384.845703 C 345.160706 384.845703 340.158112 382.845703 336.15625 382.845703 C 325.151123 379.844299 318.149292 377.842255 312.146484 376.841797 C 309.145081 375.841339 304.141541 374.842255 302.140625 373.841797 C 300.139709 372.841339 296.137665 371.839844 294.136719 371.839844 C 292.135773 371.839844 282.131134 368.839294 273.126953 365.837891 C 251.116714 360.835571 248.116638 359.834991 245.115234 361.835938 C 243.114319 362.836395 243.113281 362.83548 243.113281 384.845703 C 244.113724 410.857758 246.114868 425.865967 251.117188 436.871094 C 252.117661 440.872955 254.118668 444.874084 255.119141 446.875 C 256.119568 449.876404 258.120148 452.87796 260.121094 454.878906 C 262.122009 457.88031 265.124542 460.881897 266.125 462.882813 C 268.125916 465.884216 279.130585 475.888306 288.134766 480.890625 C 289.135223 480.890625 291.135345 482.891632 294.136719 484.892578 C 302.140442 489.894897 334.155579 498.899475 348.162109 500.900391 C 351.163513 501.150513 355.040985 501.275391 359.324219 501.291016 Z"/>
    </g>
</svg>
