<svg class="svg-icon" style="width: 1em;height: 1em;vertical-align: middle;fill: currentColor;overflow: hidden;" viewBox="0 0 1024 1024" version="1.1" xmlns="http://www.w3.org/2000/svg"><path d="M417.28 314.026667a219.733333 219.733333 0 0 1 306.773333 256l279.466667 279.466666-155.306667 154.88L568.746667 725.333333a219.306667 219.306667 0 0 1-256-306.773333l146.346666 146.346667 103.253334-103.253334zM227.413333 72.533333L315.733333 160.853333a371.626667 371.626667 0 0 1 85.333334-35.84V0h219.306666v125.013333a371.626667 371.626667 0 0 1 85.333334 35.84l90.88-88.32 154.88 154.88-88.32 88.32a394.666667 394.666667 0 0 1 35.84 85.333334H1024v219.306666h-125.013333a397.653333 397.653333 0 0 1-18.346667 52.053334l-85.333333-85.333334a293.12 293.12 0 0 0-211.2-359.68 298.666667 298.666667 0 0 0-353.706667 204.8 292.693333 292.693333 0 0 0 357.546667 362.666667l85.333333 85.333333a376.746667 376.746667 0 0 1-52.053333 18.346667V1024H402.346667v-125.013333a394.666667 394.666667 0 0 1-85.333334-35.84l-89.6 88.32-154.88-154.88 88.32-88.32a390.826667 390.826667 0 0 1-35.84-85.333334H0V402.346667h125.013333a390.826667 390.826667 0 0 1 35.84-85.333334L72.533333 227.413333z"  /></svg>